<svg version="1.1" id="Layer_1" xmlns="http://www.w3.org/2000/svg" xmlns:xlink="http://www.w3.org/1999/xlink" x="0px" y="0px" enable-background="new 0 0 736 752" xml:space="preserve" viewBox="70.75 87.8 649.63 531.02">
<path fill="#000000" opacity="1.000000" stroke="none" d=" M112.544434,563.474365   C89.394318,542.330139 77.275215,515.955933 72.597984,485.691376   C68.387222,458.445221 71.144096,432.104950 83.800224,407.482788   C97.838089,380.172455 119.830498,362.037109 149.800690,354.284760   C156.696289,352.501068 163.797226,351.103119 171.030731,351.706299   C175.261353,352.059113 176.956635,350.613953 176.929504,346.109589   C176.731766,313.279907 176.889542,280.447693 176.596405,247.619308   C176.517548,238.789368 174.728394,230.110886 170.752777,222.026672   C168.963623,218.388504 165.722214,215.958054 163.269363,212.847382   C164.686630,211.046921 166.482605,211.707733 168.011108,211.705429   C194.009399,211.666122 220.017700,211.255402 246.002625,211.850510   C263.318085,212.247086 279.999603,216.035172 294.543671,226.384079   C319.784058,244.344055 324.858459,277.875183 309.545197,302.908142   C308.607941,304.440308 307.197174,305.756653 306.944916,308.524384   C330.016571,308.524384 353.007965,308.524384 375.912537,308.524384   C376.034668,309.653290 376.216003,310.148102 376.081848,310.258087   C366.562347,318.061768 367.205017,328.266754 369.806580,338.593414   C375.896179,362.765381 382.286591,386.861786 388.597595,410.977661   C392.090240,424.323822 395.666016,437.648224 399.213562,450.979950   C399.417023,451.744354 399.703949,452.486542 400.427277,454.681030   C403.735840,442.143646 406.781738,431.001801 409.602417,419.803253   C412.567230,408.032349 415.042480,396.130981 418.292145,384.442444   C419.627808,379.638336 419.079468,375.410675 417.851624,370.828064   C414.623810,358.780731 411.996307,346.567261 408.569550,334.580109   C405.733917,324.660828 400.315247,316.171082 391.977081,309.238342   C409.718384,309.238342 427.459717,309.238342 445.075958,309.238342   C445.545197,310.307037 445.050659,310.850220 444.571625,311.254364   C437.667236,317.079437 436.501404,324.648346 437.874847,333.016815   C440.735809,350.448273 445.722351,367.375061 450.077850,384.451202   C455.456451,405.538361 460.860321,426.619049 466.264771,447.699554   C466.674988,449.299652 467.176788,450.876221 467.804108,453.044861   C469.791077,451.179016 469.998230,448.956299 470.484558,447.075562   C479.018677,414.071289 487.478729,381.047791 495.887756,348.011383   C496.993073,343.668823 498.113312,339.271118 498.559570,334.831879   C499.519135,325.285583 499.142853,316.005188 490.020874,309.251373   C501.633606,309.251373 513.246277,309.251373 524.897705,309.251373   C524.897705,309.613159 525.018188,310.131042 524.880615,310.212372   C511.770691,317.962738 506.454102,331.006836 502.716400,344.549652   C493.910248,376.457214 485.759766,408.546021 477.380798,440.571167   C471.866913,461.645691 466.432434,482.741058 460.914062,503.814423   C460.369873,505.892578 459.769257,508.171265 456.850250,508.070068   C454.128418,507.975708 453.964966,505.801178 453.444794,503.871582   C445.567627,474.651398 437.677094,445.434845 429.785492,416.218567   C427.530457,407.870056 425.261841,399.525238 422.592499,389.677399   C419.303131,402.443665 416.357697,413.824921 413.439178,425.213074   C408.072845,446.152710 402.724426,467.096924 397.363892,488.038086   C396.003082,493.354034 394.628754,498.666504 393.252319,503.978455   C392.745850,505.933105 392.336060,507.990631 389.690918,508.097382   C387.009247,508.205597 386.416290,506.147736 385.883423,504.225525   C381.129272,487.076477 376.390137,469.923126 371.708771,452.754120   C364.098450,424.842834 356.567047,396.910034 348.932739,369.005341   C346.566986,360.358063 344.712250,351.537811 340.520630,343.476593   C333.040710,329.091339 322.238525,318.631927 306.302765,314.092316   C304.147491,313.478333 302.178925,312.909576 300.223816,314.629608   C289.316803,324.225281 276.679321,330.498962 261.487030,333.952606   C281.110840,337.219757 297.368805,344.936493 311.196747,357.630890   C327.062195,372.195770 334.239990,390.714081 335.291626,411.805023   C336.398956,434.012604 331.399475,454.643066 316.868988,471.944000   C301.663361,490.048889 282.038452,501.101349 258.746277,505.344910   C238.296570,509.070587 217.808456,509.134796 198.126495,501.985992   C173.673080,493.104126 156.544891,476.712097 152.213242,450.059937   C147.723099,422.432556 163.454208,398.823547 185.963516,392.597076   C203.492233,387.748260 223.541901,397.718933 230.432785,414.488892   C231.827866,417.884033 233.081619,421.352020 235.567459,424.144501   C240.707138,429.918182 248.617523,428.571014 251.827957,421.586670   C254.861328,414.987488 253.527710,408.571442 251.565048,402.114136   C246.462662,385.326965 224.880997,365.852051 206.903519,362.037750   C205.824554,365.406677 206.431915,368.892242 206.384537,372.296173   C206.284683,379.469391 206.351120,379.437469 199.429276,379.444641   C193.764755,379.450500 188.090988,379.368164 182.439087,379.664215   C178.480103,379.871582 176.499664,378.816711 176.801819,374.428558   C177.098770,370.116241 176.662857,365.755615 176.911926,361.437195   C177.151306,357.287018 175.476074,355.884430 171.404343,355.940918   C148.981781,356.252075 129.337936,364.022064 112.421379,378.404510   C87.519096,399.576385 76.537857,427.459564 75.320389,459.460205   C74.065208,492.452423 83.295181,522.379822 104.086060,548.198792   C128.266403,578.226868 164.480759,588.826904 201.537766,577.909485   C222.396439,571.764282 241.844025,562.241699 261.818939,553.958801   C275.964630,548.093140 290.120575,542.220642 305.940613,542.590271   C319.851135,542.915283 329.570221,550.109436 333.413940,563.633789   C335.655884,571.522156 336.381683,579.617004 336.424530,587.815369   C336.472412,596.963074 335.708313,606.137024 337.120331,615.257507   C337.290680,616.357666 337.452667,617.595337 336.442413,618.804504   C334.638763,617.620117 334.894775,615.694397 334.754547,614.032104   C332.651917,589.104797 315.964020,573.316162 290.914429,572.269043   C274.162689,571.568726 257.703918,573.528320 241.293747,576.619934   C221.363586,580.374634 201.420044,584.309448 181.187622,585.880859   C155.501831,587.875793 132.415802,580.921814 112.544434,563.474365  M175.201920,431.685486   C173.523376,438.020691 172.769241,444.484833 173.378647,450.993439   C175.187683,470.314178 183.588104,485.902374 201.053604,495.130737   C232.130676,511.551086 271.781311,499.608734 290.686646,468.459076   C308.849823,438.532257 309.926422,406.859528 296.025970,375.664703   C285.267761,351.521637 265.683563,337.265625 237.885956,337.141663   C229.386353,337.103790 220.876892,337.368805 212.390366,337.031494   C207.458344,336.835480 206.686966,338.827637 206.139435,343.366608   C204.992584,352.873962 208.413559,357.245239 217.422836,361.251678   C236.996384,369.956116 251.561081,384.248230 256.886047,406.094482   C260.768127,422.021271 251.152466,435.576111 235.364075,436.332367   C224.624573,436.846741 220.439896,432.809296 220.682846,422.161804   C220.705643,421.162262 220.756439,420.163422 220.793488,419.164185   C221.259155,406.599060 212.703552,399.856659 200.399277,403.059235   C185.927231,406.826111 179.106186,417.471649 175.201920,431.685486  M287.670868,279.246948   C287.667480,272.926605 287.891235,266.613129 286.708221,260.332245   C282.799988,239.582977 271.589569,225.213867 250.969772,218.898087   C237.276108,214.703751 223.211716,216.750168 209.293243,216.361511   C206.392868,216.280548 206.355255,218.460892 206.355438,220.553085   C206.358322,256.199524 206.388214,291.846008 206.313766,327.492279   C206.306808,330.821350 207.652817,331.837250 210.787582,331.796387   C220.114059,331.674896 229.452530,332.005859 238.768768,331.671539   C254.075165,331.122284 266.770508,325.112366 276.125336,312.675262   C283.370087,303.043427 286.363434,291.915192 287.670868,279.246948  z"/>
<path fill="#000000" opacity="1.000000" stroke="none" d=" M586.888306,224.156494   C600.822632,242.976974 609.709778,263.684509 613.344788,286.368744   C617.173279,310.260742 615.069336,333.843811 606.769165,356.698303   C601.390991,371.507202 593.713745,385.077850 584.038086,397.507202   C582.443481,399.555603 581.036560,401.920074 576.909790,402.822083   C604.052429,360.961945 609.593750,317.088989 591.101807,271.601074   C572.628357,226.158691 538.728271,197.332611 490.906616,185.850876   C443.203094,174.397507 400.593842,185.862473 362.445496,217.115952   C365.060760,203.886673 405.709900,177.167511 431.756134,171.210373   C494.159454,156.937881 546.061279,173.876236 586.888306,224.156494  z"/>
<path fill="#000000" opacity="1.000000" stroke="none" d=" M437.225952,575.006836   C460.155304,573.137878 481.882935,567.528809 503.652557,562.097412   C520.901001,557.794006 538.080139,552.985718 555.973083,552.158081   C569.763855,551.520386 582.917236,553.660828 593.953491,562.852661   C597.185059,565.544189 600.331726,568.486694 601.045410,573.043335   C599.681763,573.488831 599.166748,572.772095 598.671570,572.159363   C586.738647,557.394104 570.672363,554.074158 552.893677,555.788757   C532.375671,557.767639 513.755493,566.066528 494.928467,573.594116   C472.998535,582.362122 451.499237,592.213562 429.068115,599.718994   C417.680664,603.529236 406.096130,606.692566 394.063477,607.159607   C367.443634,608.192810 353.373901,596.128235 349.722778,569.761658   C348.121918,558.201416 348.566864,546.708679 350.044830,535.099426   C352.048645,535.581360 351.994843,536.890686 352.091461,537.989929   C353.775360,557.147522 365.088806,567.926514 382.797394,572.821411   C400.575378,577.735596 418.638489,577.643982 437.225952,575.006836  z"/>
<path fill="#000000" opacity="1.000000" stroke="none" d=" M587.720825,198.297089   C582.097534,193.135483 577.716187,187.684402 576.374207,180.177673   C575.412903,174.801086 577.780884,170.122879 578.961853,164.580719   C575.147339,166.240509 572.263733,168.701141 568.681885,169.926682   C561.969177,172.223480 555.642029,171.276474 550.032593,167.650955   C543.627502,163.511215 537.785828,158.498184 531.718079,153.840225   C530.898987,153.211472 530.310669,152.398041 530.797302,151.253265   C531.646912,150.406631 532.668396,150.606003 533.601318,150.929077   C547.189148,155.634552 559.881470,152.184998 572.198792,146.455139   C589.117004,138.584961 603.833679,127.613556 616.644104,114.057816   C618.173279,112.439697 619.680969,110.614708 622.379456,110.692108   C622.977295,113.454758 621.087952,114.948715 619.974976,116.637077   C608.939636,133.377655 601.533142,151.588959 597.819519,171.273422   C595.586792,183.108322 595.475830,194.762222 601.877808,205.621475   C602.275696,206.296402 602.366455,207.152405 602.905334,208.931885   C596.400635,206.650375 592.687134,201.846252 587.720825,198.297089  z"/>
<path fill="#000000" opacity="1.000000" stroke="none" d=" M377.924896,170.542114   C370.888458,181.651306 359.218872,185.183060 349.260132,190.966278   C347.784546,189.476135 348.251282,188.706467 348.829346,188.131378   C356.639557,180.361389 359.122314,170.512863 359.720001,159.988312   C361.092072,135.827606 354.724854,113.247086 345.500366,91.267494   C345.181366,90.507339 344.844177,89.749199 344.611053,88.961830   C344.535370,88.706200 344.765198,88.360115 344.921875,87.830162   C347.443512,87.667618 348.017975,89.893776 349.040222,91.381104   C361.011597,108.799210 374.888641,124.340141 392.777832,135.939316   C403.645386,142.985748 415.074463,147.841995 428.467255,144.875809   C428.861511,144.788483 429.359436,145.169159 429.757080,145.312866   C430.099457,146.728928 429.078796,147.169632 428.250977,147.661346   C421.812622,151.485672 415.160797,154.861191 408.280426,157.855316   C398.493591,162.114227 390.156952,159.760162 382.525818,153.053040   C381.903900,152.506454 381.294830,151.944885 380.660950,151.412689   C380.558990,151.327057 380.357758,151.359604 379.808105,151.281479   C380.526001,157.739716 380.608704,164.115265 377.924896,170.542114  z"/>
<path fill="#000000" opacity="1.000000" stroke="none" d=" M673.015381,315.976624   C684.255066,320.702454 695.204285,325.100037 706.990967,326.921021   C711.557617,327.626556 716.073181,328.597076 720.371216,331.821320   C715.617249,332.275970 710.865295,332.753571 706.108826,333.181274   C687.743042,334.832550 669.850220,338.407715 653.552002,347.454803   C644.828796,352.297058 637.431396,358.700073 634.082886,368.651123   C633.813965,369.450317 633.379211,370.160858 632.361633,370.342194   C630.341614,369.783936 630.873596,368.038818 630.854675,366.671112   C630.738953,358.308533 631.560547,350.052032 634.098877,342.042633   C636.330200,335.002258 641.032043,330.470184 648.153076,328.400024   C649.865295,327.902283 651.805481,327.995331 653.621643,326.395813   C647.137146,324.265900 641.311829,321.580597 638.305237,315.145905   C635.552185,309.253845 634.823853,302.989014 635.003784,296.634552   C635.155457,291.280121 635.814392,285.940033 637.077515,280.275757   C642.989746,298.466431 656.611816,308.373322 673.015381,315.976624  z"/>
</svg>