<svg version="1.1" id="Layer_1" xmlns="http://www.w3.org/2000/svg" xmlns:xlink="http://www.w3.org/1999/xlink" x="0px" y="0px"
	 width="100%" viewBox="0 0 1008 1024" enable-background="new 0 0 1008 1024" xml:space="preserve">
<path fill="#000000" opacity="1.000000" stroke="none" 
	d="
M217.567535,479.407715 
	C228.256256,480.801819 235.492767,486.196533 239.712677,495.664948 
	C240.254120,496.879822 240.852173,498.086731 241.573608,499.200439 
	C243.009583,501.417175 244.895462,502.946106 247.762009,502.602417 
	C250.574509,502.265198 252.183044,500.446381 253.184708,498.004059 
	C254.372025,495.109131 254.183914,492.086212 253.525742,489.142334 
	C250.948563,477.615326 235.879715,463.647156 223.766724,461.483337 
	C222.637955,463.124054 222.959671,465.044678 223.128403,466.777283 
	C223.614761,471.771515 221.222092,473.027405 216.640274,472.993591 
	C204.353806,472.902863 204.190430,473.055511 203.852325,460.738434 
	C203.737701,456.562805 201.704025,456.176392 198.444305,456.439301 
	C164.619019,459.167694 140.144547,483.433533 137.210983,517.408264 
	C135.271255,539.873047 140.308136,560.486084 154.587540,578.302856 
	C170.935883,598.701111 192.283737,605.229492 217.464874,599.933838 
	C234.202744,596.413818 249.334686,588.356689 265.201385,582.372192 
	C274.233521,578.965576 283.230164,575.257874 293.174591,575.783142 
	C300.347931,576.161987 306.195312,579.226013 309.313263,585.819946 
	C314.993073,597.831543 313.005798,610.640259 313.234344,624.002075 
	C311.158234,622.215515 311.409882,620.560242 311.083344,619.204773 
	C307.632233,604.880005 299.330200,597.519409 284.666138,596.181458 
	C268.539734,594.710022 252.825836,597.883606 237.084534,600.636658 
	C226.766464,602.441223 216.470444,604.627319 205.991577,605.017761 
	C185.767639,605.771118 168.479538,599.137085 154.668564,583.917786 
	C132.094803,559.042236 126.264938,518.784546 141.816376,489.237122 
	C153.146011,467.711029 171.623825,456.222015 195.732468,453.744202 
	C203.788315,452.916260 203.810120,453.015259 203.812424,444.906586 
	C203.817017,428.742889 203.771500,412.579071 203.817749,396.415497 
	C203.844116,387.198792 203.842392,378.028412 196.518188,371.160522 
	C197.626572,369.253387 199.101440,369.686188 200.337082,369.686035 
	C216.833511,369.684021 233.331848,369.587708 249.825684,369.811829 
	C260.989655,369.963501 271.179901,373.299988 279.628784,380.864655 
	C300.106750,399.199493 293.104553,431.279083 266.449860,441.476990 
	C264.286835,442.304565 262.109955,443.095947 258.736298,444.352203 
	C263.179779,445.714752 266.575134,446.609436 269.868073,447.789825 
	C288.610779,454.508362 301.843811,466.620758 305.048950,486.915192 
	C308.652283,509.730530 301.717407,529.278076 282.047180,542.104797 
	C258.543396,557.431274 233.307907,559.150818 208.059784,546.156372 
	C189.799591,536.758301 182.025635,514.919128 189.655228,497.162689 
	C194.651840,485.534058 204.324921,479.262573 217.567535,479.407715 
M243.041977,446.424530 
	C238.709000,446.420776 234.375946,446.430695 230.043045,446.410187 
	C223.040268,446.377075 221.970078,447.774902 223.088516,454.566284 
	C223.588608,457.603058 225.943710,457.988098 227.989502,458.877991 
	C240.870514,464.481293 251.112335,472.775513 255.871964,486.502350 
	C259.550873,497.112366 255.853806,504.491394 245.331635,508.086884 
	C236.745605,511.020752 231.258392,506.559021 232.477402,497.634918 
	C233.248077,491.993073 230.017593,487.804962 224.398483,487.161102 
	C216.432846,486.248322 208.843994,490.551544 205.056549,498.538757 
	C200.655518,507.819946 199.979752,517.483215 203.390045,527.215332 
	C209.813858,545.547180 230.595413,555.081360 250.629166,548.838928 
	C271.437042,542.355286 282.124664,527.088440 285.147064,506.444000 
	C289.565277,476.265350 275.591034,449.592590 243.041977,446.424530 
M222.931442,392.500610 
	C222.956940,407.475800 223.078278,422.451874 222.944275,437.425629 
	C222.908264,441.450317 224.166931,443.234711 228.375549,443.008575 
	C233.354050,442.741150 238.363358,443.060059 243.343689,442.811493 
	C250.377731,442.460419 256.563995,440.076691 261.654175,434.915253 
	C273.128876,423.279938 275.540619,401.608734 266.858215,387.107117 
	C263.183380,380.969330 257.836700,376.918396 251.187057,374.631042 
	C242.937149,371.793243 234.366043,373.340210 225.927368,373.198456 
	C223.534393,373.158234 223.015305,375.020538 223.002075,377.025665 
	C222.970215,381.850708 222.953339,386.675842 222.931442,392.500610 
z"/>
<path fill="#000000" opacity="1.000000" stroke="none" 
	d="
M529.930054,501.932831 
	C532.973206,489.943939 535.909668,478.327332 538.824036,466.705170 
	C539.182983,465.273529 539.769470,463.900299 539.342224,462.314392 
	C537.047119,453.794250 534.809326,445.258545 532.578003,436.721344 
	C531.058167,430.906372 527.023560,426.794739 521.705322,422.145081 
	C533.756958,422.145081 544.415161,422.145081 555.911865,422.145081 
	C546.948059,431.905975 552.044922,441.847046 554.411743,451.586700 
	C558.379700,467.915344 562.655884,484.169250 566.837036,500.445740 
	C567.363281,502.494354 568.098938,504.489197 569.128723,507.745758 
	C570.401855,503.495148 571.424683,500.432587 572.235413,497.314850 
	C576.883423,479.441223 581.487061,461.556091 586.090881,443.671051 
	C587.098938,439.754761 586.971069,435.761749 586.923523,431.756104 
	C586.877319,427.864441 584.688049,425.312378 581.781067,423.070251 
	C585.287292,421.302643 598.406372,421.124481 604.067444,423.007904 
	C597.463745,426.913574 593.649963,432.432617 591.656982,439.069244 
	C589.646912,445.762695 587.990051,452.562714 586.204712,459.322998 
	C579.237000,485.705200 572.281250,512.090576 565.315125,538.473206 
	C564.890686,540.080627 564.570007,542.086548 562.494446,542.067261 
	C560.098816,542.045044 560.017395,539.788208 559.548645,538.049438 
	C553.916504,517.158081 548.281677,496.267426 542.642944,475.377869 
	C542.430725,474.591339 542.170715,473.817688 541.623962,472.025116 
	C535.995422,493.798553 530.657593,514.624878 525.175171,535.413147 
	C524.546204,537.798157 524.992310,541.757629 521.696777,541.833557 
	C518.398071,541.909607 518.646545,537.937134 517.999878,535.592468 
	C509.194794,503.668976 500.499390,471.715118 491.840820,439.751404 
	C490.048492,433.134918 486.720612,427.541992 481.591125,422.346130 
	C492.115906,422.346130 502.640686,422.346130 514.134888,422.346130 
	C507.790649,428.301147 508.685730,435.036987 510.419128,441.740448 
	C515.875610,462.841797 521.473572,483.906555 527.028503,504.982422 
	C527.184998,505.576385 527.473083,506.135681 527.785217,506.927979 
	C529.264832,505.502350 529.294556,503.794495 529.930054,501.932831 
z"/>
<path fill="#000000" opacity="1.000000" stroke="none" 
	d="
M769.315552,429.258118 
	C787.359192,414.532318 809.810852,415.566376 824.413269,431.499908 
	C831.509644,439.243042 833.558350,448.662811 833.548950,458.752014 
	C833.530090,479.083130 833.288940,499.415680 833.474121,519.744568 
	C833.546753,527.709900 833.744751,535.955688 842.112427,540.978699 
	C830.548828,545.692444 820.154175,542.234192 815.275696,532.274231 
	C803.495239,546.594299 788.933105,547.179199 773.359619,540.263977 
	C755.742676,532.441345 752.169617,513.840942 765.217712,499.642914 
	C771.486206,492.822113 779.139587,487.780426 786.908508,482.890686 
	C791.846619,479.782654 796.854187,476.723328 800.755127,472.294128 
	C805.612793,466.778717 804.683044,462.405609 797.631653,461.324066 
	C786.493652,459.615753 779.482849,453.011230 773.698303,444.223846 
	C772.051575,441.722351 770.360046,439.200653 768.345337,437.003357 
	C765.650330,434.064301 766.105774,431.744659 769.315552,429.258118 
M815.004395,450.319183 
	C814.727173,442.701294 813.135376,435.440063 808.715820,429.083588 
	C804.779297,423.421753 799.072937,421.580994 792.497253,422.583679 
	C786.251709,423.535980 782.587769,427.548950 780.753174,433.467346 
	C777.050049,445.413788 782.712036,455.060028 795.094543,457.791077 
	C808.262268,460.695374 810.348389,466.725250 801.717468,477.106812 
	C799.697388,479.536682 797.564270,481.885895 795.338440,484.128662 
	C790.516479,488.987396 785.877197,494.022064 782.195557,499.792725 
	C776.015747,509.479126 772.551880,519.651123 778.445312,530.814636 
	C782.794067,539.052185 791.073120,542.283142 800.585632,539.647461 
	C809.247498,537.247498 815.425720,528.548523 815.289307,520.101685 
	C815.068848,506.450989 815.397156,492.792297 815.385620,479.137115 
	C815.377747,469.830139 815.185547,460.523315 815.004395,450.319183 
z"/>
<path fill="#000000" opacity="1.000000" stroke="none" 
	d="
M632.353210,418.833679 
	C653.546631,418.677185 668.663513,429.337250 672.698364,447.283478 
	C673.674316,451.624420 674.034729,456.181702 674.065674,460.643738 
	C674.200928,480.132050 674.098083,499.621948 674.108337,519.111267 
	C674.112671,527.453125 673.440674,536.054077 682.740234,541.112488 
	C671.812927,545.553894 662.239136,542.595764 655.684937,533.329895 
	C654.224915,533.243408 653.890686,534.601685 653.147095,535.391052 
	C637.400696,552.107544 609.806152,542.683716 601.818909,530.708984 
	C594.759644,520.125427 597.221619,506.538635 607.707031,496.917084 
	C613.752197,491.369965 620.633362,486.980164 627.555298,482.646027 
	C632.788086,479.369476 637.981384,475.992523 641.956726,471.177582 
	C645.889465,466.414154 645.204102,462.382080 639.413635,461.653015 
	C623.017700,459.588684 616.390625,446.585876 607.961121,435.405640 
	C606.303589,433.207275 607.494324,431.774872 609.035217,430.278870 
	C615.452759,424.048279 623.129700,420.362854 632.353210,418.833679 
M626.037964,453.506836 
	C629.977356,457.034119 635.121887,457.372314 639.876343,458.756409 
	C647.266418,460.907806 649.080994,465.147125 645.387268,471.947235 
	C644.288086,473.970856 642.870605,475.875763 641.331299,477.595490 
	C637.447388,481.934662 633.283142,486.026154 629.462524,490.418030 
	C621.320251,499.777679 614.781799,509.786987 616.240723,523.130188 
	C617.343872,533.219543 626.032043,541.191956 635.802246,540.666626 
	C646.695007,540.080994 655.655762,531.492615 655.664612,521.558655 
	C655.684875,498.920715 655.740112,476.282440 655.636536,453.644958 
	C655.599609,445.580261 654.100098,437.736389 650.151855,430.588715 
	C646.496948,423.972046 640.502075,421.744232 633.277954,422.393890 
	C627.402283,422.922272 622.970703,427.131592 621.064453,433.956909 
	C619.074890,441.080261 620.686768,447.430969 626.037964,453.506836 
z"/>
<path fill="#000000" opacity="1.000000" stroke="none" 
	d="
M331.312775,426.221252 
	C354.602020,409.557465 381.901611,423.841492 388.407654,440.492035 
	C390.172791,445.009460 391.418854,449.583344 391.392517,454.535919 
	C391.286255,474.519806 391.361877,494.504578 391.325409,514.488953 
	C391.307495,524.297729 390.421997,534.335571 399.979248,541.199158 
	C389.503693,545.635620 379.722687,542.536987 373.646545,533.218323 
	C371.327637,533.624512 370.312500,535.763855 368.847504,537.178223 
	C355.025909,550.522034 327.810760,543.629822 319.060181,530.323914 
	C313.079132,521.229309 314.409058,509.173523 322.216339,500.262787 
	C327.091003,494.699158 333.034607,490.438263 339.263031,486.516388 
	C345.877930,482.351196 352.747528,478.483978 358.200745,472.749817 
	C363.916382,466.739746 363.048859,462.269958 355.006409,460.998413 
	C343.953430,459.250946 337.273560,452.631561 331.719330,443.934235 
	C330.913910,442.673065 329.975250,441.497192 329.103668,440.277985 
	C323.609222,432.591858 323.609711,432.591522 331.312775,426.221252 
M364.978027,536.565918 
	C371.061279,532.416870 373.907379,526.963867 373.786591,519.303833 
	C373.445312,497.660858 373.732452,476.008636 373.631714,454.360718 
	C373.597412,446.989532 372.228821,439.791840 369.178650,433.031128 
	C365.551849,424.992371 358.373901,421.103668 350.209717,422.545502 
	C343.345459,423.757721 338.925690,428.893066 338.166077,436.538910 
	C337.176270,446.501099 340.795258,453.474274 348.693207,456.362610 
	C351.804962,457.500641 355.119812,458.071777 358.271576,459.114502 
	C364.230408,461.085968 365.976440,464.965485 363.571320,470.771210 
	C362.548645,473.239838 361.129974,475.506439 359.306732,477.487915 
	C355.474335,481.652985 351.605835,485.785126 347.801575,489.975708 
	C342.279907,496.057983 337.405670,502.566742 334.877686,510.528931 
	C331.600983,520.849182 334.073425,531.247925 341.460480,536.871155 
	C348.963226,542.582397 356.702118,541.329651 364.978027,536.565918 
z"/>
<path fill="#000000" opacity="1.000000" stroke="none" 
	d="
M438.155090,543.205017 
	C427.350922,540.715271 417.911163,536.375427 409.791168,529.363953 
	C407.934601,527.760864 406.285278,526.137634 408.249664,523.482239 
	C413.497162,516.388855 418.696594,509.260010 423.952576,502.173004 
	C424.193695,501.847900 424.799377,501.793243 425.829193,501.366608 
	C424.541016,505.707581 423.397522,509.599243 422.231110,513.484070 
	C419.691467,521.942444 425.423950,533.658447 436.472534,538.114685 
	C443.936279,541.125000 451.617950,541.799316 459.454773,539.325439 
	C472.509186,535.204346 477.298950,520.499084 468.988708,509.492218 
	C463.261993,501.907318 455.248169,496.951416 447.582672,491.657898 
	C438.130768,485.130737 428.292786,479.161713 419.808258,471.293823 
	C409.086853,461.351593 405.466522,449.195923 410.644928,437.590302 
	C415.909393,425.791931 426.082214,420.338776 438.282318,418.913788 
	C453.011169,417.193420 464.288879,424.134216 473.700134,434.790985 
	C475.004669,436.268219 475.916656,437.672302 474.457031,439.621399 
	C468.969421,446.949219 463.541107,454.321411 458.050995,461.647278 
	C457.820190,461.955261 457.193207,461.966278 456.165405,462.313202 
	C457.883423,457.623016 459.690216,453.435547 460.951935,449.089844 
	C463.527374,440.219574 459.665436,429.269440 452.788696,425.136627 
	C445.727997,420.893250 434.958923,421.364441 429.852051,426.592407 
	C424.618103,431.950470 422.551941,439.663513 426.824982,448.773224 
	C429.963837,455.464996 435.061920,460.479950 441.025116,464.584167 
	C451.452393,471.760895 462.068359,478.663239 472.510010,485.819519 
	C478.332428,489.809998 483.529755,494.587860 486.889252,500.875244 
	C494.001556,514.186157 490.547760,527.740051 477.890198,536.324341 
	C465.868835,544.477173 452.493652,545.530029 438.155090,543.205017 
z"/>
<path fill="#000000" opacity="1.000000" stroke="none" 
	d="
M697.229858,437.854370 
	C696.020630,436.282562 694.088074,435.898224 693.388611,433.332886 
	C703.176941,432.417633 710.803894,426.841248 718.513733,421.269287 
	C721.379639,424.898590 719.278137,428.845459 720.725464,432.541321 
	C722.353882,430.387268 723.746033,428.387390 725.298218,426.520538 
	C731.468140,419.099396 743.246216,416.277618 751.666077,420.145081 
	C759.655518,423.814819 761.648193,432.017029 755.966187,438.640839 
	C753.016174,442.079803 749.230469,444.455322 744.236084,446.006226 
	C744.170044,441.585236 745.149048,437.539246 743.931213,433.515961 
	C742.861023,429.980194 741.506470,426.770477 737.854736,425.574493 
	C733.708435,424.216492 730.379761,426.223907 727.651428,429.221069 
	C722.712036,434.647186 720.409424,441.317505 720.350403,448.416687 
	C720.141357,473.568329 720.217163,498.723785 720.398254,523.876282 
	C720.448120,530.798828 722.734863,536.977783 728.864075,541.813660 
	C717.213501,541.813660 705.562927,541.813660 692.623840,541.813660 
	C701.838684,535.507507 701.846191,526.830994 701.817871,518.087280 
	C701.744995,495.599396 701.736633,473.111298 701.720032,450.623260 
	C701.716553,445.963226 700.390015,441.776794 697.229858,437.854370 
z"/>
<path fill="#000000" opacity="1.000000" stroke="none" 
	d="
M832.651978,588.281311 
	C819.383728,578.416626 804.980286,579.923889 790.675659,583.396851 
	C770.737122,588.237671 751.857056,596.349670 732.622437,603.341797 
	C719.145325,608.240967 705.561035,612.690979 691.313232,614.806458 
	C686.994080,615.447754 682.655029,615.603455 678.357544,615.079041 
	C665.332397,613.489807 656.966248,605.848572 655.062439,592.748291 
	C653.851501,584.415588 653.948486,575.887695 654.926697,567.498596 
	C656.144897,567.329407 656.162109,568.037903 656.296875,568.643005 
	C659.662903,583.752319 666.604431,589.822632 681.779419,592.818604 
	C697.145264,595.852112 712.298157,594.067444 727.481506,592.207764 
	C748.330383,589.654114 768.636658,584.258484 789.151611,579.953308 
	C801.474670,577.367249 813.840088,575.898010 825.991882,580.960449 
	C830.196838,582.712219 834.024048,585.048218 837.062378,588.469727 
	C838.183167,589.731812 839.930481,590.944153 838.833496,593.389709 
	C835.770081,593.003601 835.088257,589.811218 832.651978,588.281311 
z"/>
<path fill="#000000" opacity="1.000000" stroke="none" 
	d="
M380.318634,392.919495 
	C380.120056,398.979187 379.092377,404.338104 376.114441,409.392670 
	C379.569885,384.560028 371.659210,365.257202 348.382568,354.909332 
	C325.041351,344.532776 305.407898,352.001007 289.191223,371.304230 
	C289.863739,357.790924 313.924286,343.073303 333.414856,343.566559 
	C360.267578,344.246124 380.152283,364.964355 380.318634,392.919495 
z"/>
<path fill="#000000" opacity="1.000000" stroke="none" 
	d="
M295.802063,344.023193 
	C298.008301,344.168060 299.822144,343.250702 301.602905,344.131744 
	C299.891418,349.114532 296.288391,351.393066 289.376099,351.641663 
	C289.894165,357.602783 287.194427,361.943085 281.239502,365.540985 
	C283.975677,352.745453 277.070160,343.679199 271.150940,334.032867 
	C279.217285,337.977051 286.135529,343.824493 295.802063,344.023193 
z"/>
<path fill="#000000" opacity="1.000000" stroke="none" 
	d="
M341.813904,338.636292 
	C339.738770,337.938141 337.847198,337.742126 336.213074,335.238800 
	C341.874023,334.154510 346.379303,331.450012 350.211273,327.530731 
	C354.005371,323.650238 356.696472,318.907562 360.552948,314.765350 
	C359.490295,325.513519 356.587402,336.228668 363.945160,345.895569 
	C358.762756,346.746185 355.181335,344.491211 351.192932,338.046722 
	C348.328003,338.839600 345.319763,340.026825 341.813904,338.636292 
z"/>
<path fill="#000000" opacity="1.000000" stroke="none" 
	d="
M386.980225,370.226013 
	C394.899689,375.454071 403.638275,373.600098 412.327789,374.658569 
	C403.627563,380.276337 392.881958,383.351593 389.324005,395.812927 
	C386.396332,389.953369 385.896027,385.497437 389.047668,380.761597 
	C384.641327,377.331421 381.988312,373.032745 382.044067,367.287842 
	C384.604492,366.902100 385.137421,369.286835 386.980225,370.226013 
z"/>
</svg>