<svg version="1.1" id="Layer_1" xmlns="http://www.w3.org/2000/svg" xmlns:xlink="http://www.w3.org/1999/xlink" x="0px" y="0px"
	 width="100%" viewBox="240 200 660 540" enable-background="new 0 0 1024 1024" xml:space="preserve">
<path fill="#000000" opacity="1.000000" stroke="none" 
	d="
M457.163025,657.017822 
	C464.783661,654.375000 472.133453,652.090393 479.834534,651.764771 
	C499.022766,650.953491 509.736877,660.562500 512.358948,679.911255 
	C513.801514,690.556458 513.129944,701.193665 513.277893,711.833252 
	C513.326843,715.357056 514.858093,718.917480 513.573669,722.660767 
	C511.429260,721.708496 511.837036,720.024536 511.696472,718.642761 
	C509.382019,695.883850 493.456665,681.281799 470.590607,680.200562 
	C451.432220,679.294678 432.781372,682.457031 414.147461,686.032166 
	C398.609070,689.013367 383.007294,691.818909 367.261536,693.028381 
	C328.806030,695.982117 299.894989,679.486816 280.625183,646.899841 
	C258.646118,609.731384 254.066528,569.970703 271.176331,529.961975 
	C286.980804,493.005585 316.111206,472.686279 356.962921,470.796539 
	C360.506989,470.632568 362.043304,469.727478 362.028412,465.949615 
	C361.910156,435.953949 362.149170,405.955200 361.809723,375.962738 
	C361.658264,362.577545 360.397736,349.215363 349.208099,339.571289 
	C350.544800,337.149658 352.591858,337.919220 354.254150,337.915497 
	C377.751343,337.862610 401.254791,337.553070 424.743988,337.990112 
	C442.100098,338.313080 458.911224,341.585754 473.470490,351.961456 
	C496.233429,368.183533 502.851227,398.320343 489.127350,422.645081 
	C487.995209,424.651764 486.815002,426.631348 484.916260,429.898315 
	C507.677277,429.898315 529.429810,429.898315 551.147766,429.898315 
	C551.147766,431.317719 551.280151,431.816040 551.128845,431.926819 
	C542.116150,438.525665 542.877075,447.878235 544.908630,456.912048 
	C551.953430,488.237640 560.833313,519.102234 569.052002,550.132568 
	C570.518188,555.668396 572.014709,561.196106 574.460754,566.680298 
	C577.179016,556.456055 579.959229,546.247681 582.597168,536.002747 
	C584.961792,526.819580 586.996643,517.548584 589.501404,508.405212 
	C591.517639,501.045227 592.239807,493.915588 589.982849,486.374542 
	C586.886780,476.029694 584.718628,465.409729 581.737793,455.026794 
	C579.314758,446.587128 575.407776,438.893463 567.942200,433.587494 
	C567.146973,433.022278 566.300842,432.397522 566.349121,430.580078 
	C583.053467,430.580078 599.771790,430.580078 616.667053,430.580078 
	C616.137146,433.671783 613.561035,434.535400 612.380127,436.512329 
	C609.013794,442.147766 608.575989,448.206787 609.846313,454.385712 
	C615.813171,483.408569 623.681030,511.965912 631.161865,540.617249 
	C633.414185,549.243347 635.077515,558.034668 639.003784,566.533325 
	C641.100647,558.538269 643.262939,550.559753 645.282288,542.545166 
	C651.744507,516.897522 659.150024,491.490051 664.911072,465.665375 
	C665.959900,460.963593 667.017639,456.205902 667.378906,451.421753 
	C667.968872,443.608398 666.098389,436.512207 658.647522,431.773834 
	C658.907471,431.414490 659.167480,431.055115 659.427429,430.695770 
	C670.373230,430.695770 681.319031,430.695770 693.076599,430.695770 
	C689.858154,434.334198 685.824646,435.523773 683.329712,438.730408 
	C677.592896,446.103851 673.768799,454.445190 671.414246,463.309052 
	C658.214294,513.001587 645.261841,562.759949 632.223511,612.495422 
	C631.970276,613.461426 631.709045,614.425476 631.435547,615.385864 
	C630.864563,617.390747 630.143311,619.255737 627.547241,619.184204 
	C625.057068,619.115662 624.817871,617.113037 624.343811,615.370056 
	C619.148010,596.262878 613.953735,577.155212 608.787537,558.039917 
	C604.663513,542.780823 600.585571,527.509216 596.455933,512.251648 
	C596.253784,511.504639 595.751587,510.838898 595.098328,509.571014 
	C592.709290,513.678101 592.421143,517.858276 591.408386,521.729919 
	C583.367737,552.467773 575.505798,583.252502 567.578430,614.020020 
	C567.017883,616.195557 567.126709,618.982971 563.891296,619.142151 
	C560.592834,619.304443 560.406006,616.455383 559.832397,614.338562 
	C551.087524,582.067383 542.470764,549.761414 533.693481,517.499146 
	C529.546997,502.258331 525.594299,486.939392 520.702209,471.933472 
	C514.991577,454.416901 504.111969,441.314209 485.782104,435.645935 
	C482.485901,434.626648 479.834320,435.141663 477.063080,437.479309 
	C467.365784,445.659119 456.351593,451.334229 443.710663,453.977173 
	C452.010040,455.576904 459.931763,458.220581 467.475861,461.817993 
	C488.874023,472.021759 504.612915,487.663757 509.844757,511.253204 
	C519.492310,554.752319 503.097656,593.667847 457.082733,611.710144 
	C429.550751,622.505371 401.022980,623.005066 373.998718,609.959167 
	C351.442596,599.070312 337.609833,580.797546 338.019928,554.577271 
	C338.299347,536.710571 346.334015,522.588562 361.923615,513.257874 
	C378.989960,503.043243 403.409607,510.469696 411.945099,528.383118 
	C413.449463,531.540283 414.835693,534.765015 416.531921,537.816528 
	C418.466492,541.296814 421.531067,543.111450 425.616547,542.815857 
	C429.825592,542.511414 432.115875,539.877319 433.514465,536.179443 
	C436.203430,529.069763 434.375244,522.271973 431.547302,515.824829 
	C423.687256,497.905426 409.155640,487.469360 391.151642,480.450073 
	C389.573914,484.671356 390.307068,488.663971 390.350494,492.529694 
	C390.392212,496.241058 388.970947,497.546295 385.331573,497.427490 
	C379.338684,497.231842 373.324646,497.164032 367.338806,497.448151 
	C363.009399,497.653687 361.756561,495.711761 361.952515,491.802673 
	C362.119141,488.478333 361.994873,485.138397 361.968048,481.805634 
	C361.914490,475.149963 361.749115,474.876251 355.290894,475.125092 
	C328.789490,476.146393 307.142059,487.418396 290.093048,507.291473 
	C273.457397,526.682800 266.450989,549.804504 266.000488,575.091125 
	C265.439178,606.596863 274.271118,635.075195 294.827240,659.166199 
	C317.990967,686.313232 347.715973,694.031250 381.916809,686.231384 
	C399.727966,682.169312 416.065735,674.075134 432.757263,666.970337 
	C440.719543,663.581238 448.779480,660.421509 457.163025,657.017822 
M398.627777,478.730804 
	C399.537964,479.142883 400.471436,479.510529 401.354889,479.973572 
	C419.645508,489.560883 433.751648,502.689728 438.260101,523.852661 
	C441.580780,539.439880 430.460999,552.345398 414.655151,551.325867 
	C407.088776,550.837891 403.544250,547.061646 403.652954,539.568115 
	C403.684387,537.403625 403.830353,535.240417 403.846191,533.076111 
	C403.907013,524.752686 399.063904,519.532837 390.780365,519.354980 
	C379.085480,519.103821 370.601685,524.846619 365.310181,534.794617 
	C349.155640,565.165039 362.761932,611.852783 410.867828,613.654785 
	C441.737854,614.811157 468.595276,594.714355 478.723633,563.857910 
	C484.153961,547.314148 484.782166,530.527832 481.561127,513.566345 
	C476.829773,488.651764 463.906799,469.945709 439.680145,460.479279 
	C424.601898,454.587524 408.707458,457.850525 393.162628,457.264526 
	C391.928833,457.218018 390.638306,457.692169 390.530609,459.060150 
	C390.125702,464.202972 389.537018,469.486847 390.772858,474.454773 
	C391.465179,477.237823 395.496552,477.079071 398.627777,478.730804 
M436.975983,448.547150 
	C447.506409,444.680084 454.883636,437.342712 460.194702,427.646027 
	C466.970703,415.274780 467.710968,401.876007 466.654175,388.301270 
	C464.871429,365.402161 450.210968,348.532623 427.897034,343.949890 
	C417.402344,341.794556 406.625336,343.320221 395.987976,342.878387 
	C391.695374,342.700073 390.150330,344.118378 390.200500,348.567566 
	C390.403503,366.557800 390.267883,384.551849 390.265930,402.544464 
	C390.264313,417.205109 390.397369,431.867371 390.202545,446.525360 
	C390.147308,450.679810 391.539490,452.092010 395.656281,451.963348 
	C403.645477,451.713593 411.647827,451.819336 419.643982,451.879639 
	C425.388184,451.922974 430.885986,450.792938 436.975983,448.547150 
z"/>
<path fill="#000000" opacity="1.000000" stroke="none" 
	d="
M759.688965,479.825165 
	C768.155029,452.781464 765.976013,426.169678 757.128906,400.417755 
	C746.118958,368.370209 724.845825,344.143036 695.360352,327.294830 
	C677.424377,317.046082 657.936218,310.779175 637.513733,309.862213 
	C609.151001,308.588776 581.847412,313.932587 557.312622,329.456177 
	C551.822449,332.929871 546.419434,336.509674 541.692932,341.020630 
	C540.776123,341.895599 539.839417,343.002625 538.268188,342.559845 
	C543.092285,320.656494 603.938110,293.045410 647.212402,295.157623 
	C709.695923,298.207489 763.235352,341.017639 775.887451,407.739471 
	C783.068115,445.607391 763.129456,510.955170 741.189636,519.494446 
	C749.375732,506.583435 756.548279,494.310547 759.688965,479.825165 
z"/>
<path fill="#000000" opacity="1.000000" stroke="none" 
	d="
M536.679810,703.316895 
	C527.543213,693.110291 525.979492,680.721375 524.956665,668.206421 
	C524.333252,660.579102 525.655701,653.027283 525.951294,645.413269 
	C528.415405,645.380981 528.128601,647.039368 528.252991,648.205200 
	C530.137939,665.878052 540.688538,675.965332 557.062317,680.580994 
	C572.351501,684.890808 588.003479,684.346680 603.671997,683.331482 
	C636.635559,681.195740 667.797913,670.286743 699.873169,663.835876 
	C713.771790,661.040588 727.811035,659.079712 741.889282,663.065979 
	C750.274048,665.440186 757.602600,669.486572 762.822510,676.690247 
	C763.721802,677.931335 765.089539,679.275208 764.035828,681.086792 
	C763.172058,681.449463 762.674622,680.996521 762.259583,680.476990 
	C750.150208,665.320190 733.764465,662.496460 715.902405,664.960693 
	C693.554443,668.043823 673.331909,677.741760 652.649048,686.018494 
	C630.584900,694.847900 609.098694,705.319580 585.725403,710.559509 
	C574.803467,713.007996 563.818481,714.720459 552.632263,711.871582 
	C546.693909,710.359253 541.383972,707.823059 536.679810,703.316895 
z"/>
<path fill="#000000" opacity="1.000000" stroke="none" 
	d="
M797.361511,486.337891 
	C796.154480,488.032379 796.695557,490.438660 794.443909,491.025208 
	C792.775024,490.360626 792.885193,488.914246 792.953430,487.629974 
	C793.411865,479.000916 793.670410,470.338684 796.510925,462.038849 
	C798.903198,455.048798 803.608704,450.551483 810.815369,448.736145 
	C812.340637,448.351929 813.856873,447.932098 815.893188,447.391785 
	C799.652100,441.112946 796.775757,433.131897 797.519714,414.053558 
	C797.687927,409.739044 796.842041,405.154602 798.801208,401.142670 
	C799.955383,400.943542 800.605896,401.279877 800.777710,401.937531 
	C805.192383,418.836182 817.974121,427.625671 832.360779,435.139557 
	C847.173462,442.875916 863.260315,446.189026 879.330872,449.706757 
	C880.720459,450.010956 882.403442,449.843262 883.456360,452.383820 
	C876.501953,452.975067 869.781006,453.302032 863.128235,454.158691 
	C844.388611,456.571564 826.092468,460.428802 810.136414,471.469543 
	C804.660095,475.258911 800.541382,480.138428 797.361511,486.337891 
z"/>
<path fill="#000000" opacity="1.000000" stroke="none" 
	d="
M771.812378,266.812317 
	C765.985535,281.061493 760.925720,295.116302 760.137634,310.351166 
	C759.766296,317.529938 761.211975,324.218964 764.294373,330.646484 
	C764.911255,331.932770 765.898071,333.209717 765.080200,335.547638 
	C757.565002,330.974670 750.875183,325.810333 745.482727,319.054688 
	C739.642822,311.738647 739.859436,303.514587 743.178467,293.932373 
	C738.928833,296.416107 735.892883,298.015625 732.567261,299.066742 
	C727.823120,300.566223 723.291626,300.086487 718.957825,298.110931 
	C710.971558,294.470398 704.679626,288.424744 698.125122,282.787506 
	C697.723755,282.442291 697.718933,281.636047 697.582031,281.208282 
	C698.591248,279.945465 699.629272,280.351013 700.519775,280.663605 
	C713.688171,285.286346 725.746582,281.423401 737.608276,275.899963 
	C753.503052,268.498505 767.166870,258.058899 779.283752,245.478531 
	C780.590271,244.122009 781.819641,242.338821 784.924744,242.959946 
	C780.520020,250.974442 776.258301,258.728821 771.812378,266.812317 
z"/>
<path fill="#000000" opacity="1.000000" stroke="none" 
	d="
M534.487793,236.509003 
	C544.111389,248.121063 554.442688,258.451172 566.913940,266.454346 
	C577.521301,273.261475 588.725647,277.736786 601.652100,274.865936 
	C601.729431,275.642578 601.898621,276.139191 601.771179,276.233093 
	C593.809021,282.098480 585.137756,286.669281 575.530579,289.000397 
	C569.279968,290.517059 563.797729,287.778290 558.791321,284.123260 
	C557.505249,283.184357 556.717834,281.488708 554.521118,281.325592 
	C555.719055,289.732910 555.481201,297.766571 549.024048,304.158142 
	C542.182190,310.930389 533.406189,314.364807 525.340271,318.670227 
	C524.013794,317.180511 524.451782,316.424622 525.052429,315.849640 
	C533.117493,308.129944 535.137573,298.075592 535.658691,287.601257 
	C536.611145,268.459320 531.891357,250.319885 525.321533,232.561493 
	C523.916138,228.762772 522.400879,225.004684 521.494202,220.890961 
	C527.062622,224.990524 529.908691,231.248276 534.487793,236.509003 
z"/>
</svg>